<?xml version="1.0" encoding="UTF-8" standalone="no"?>
<!-- Created with Inkscape (http://www.inkscape.org/) -->

<svg
   width="210mm"
   height="297mm"
   viewBox="0 0 210 297"
   version="1.1"
   id="svg1"
   xmlns="http://www.w3.org/2000/svg"
   xmlns:svg="http://www.w3.org/2000/svg">
  <defs
     id="defs1" />
  <g
     id="layer1"
     style="display:none">
    <text
       xml:space="preserve"
       style="font-size:27.4419px;font-family:'HvDTrial Brandon Grotesque';-inkscape-font-specification:'HvDTrial Brandon Grotesque';text-align:center;letter-spacing:5.5864px;text-anchor:middle;fill:#ff0000;stroke-width:1.76413;stroke-opacity:0.99"
       x="53.667278"
       y="69.255028"
       id="text2"><tspan
         style="font-style:normal;font-variant:normal;font-weight:bold;font-stretch:normal;font-size:27.4419px;font-family:Menlo;-inkscape-font-specification:'Menlo, Bold';font-variant-ligatures:normal;font-variant-caps:normal;font-variant-numeric:normal;font-variant-east-asian:normal;stroke-width:1.76413"
         x="53.667278"
         y="69.255028"
         id="tspan3">R_</tspan><tspan
         style="font-style:normal;font-variant:normal;font-weight:bold;font-stretch:normal;font-size:27.4419px;font-family:Menlo;-inkscape-font-specification:'Menlo, Bold';font-variant-ligatures:normal;font-variant-caps:normal;font-variant-numeric:normal;font-variant-east-asian:normal;stroke-width:1.76413"
         x="56.46048"
         y="105.19749"
         id="tspan4">13</tspan></text>
  </g>
  <g
     id="layer2"
     style="display:none">
    <path
       id="rect5"
       style="fill:#ff0000;stroke-width:1.77488;stroke-opacity:0.99"
       d="m 110,145 5,5 v 20 h -5 z" />
    <rect
       style="fill:#ff0000;stroke-width:1.5875;stroke-opacity:0.99"
       id="rect6"
       width="15.000003"
       height="4.8679695"
       x="105"
       y="165.13203" />
    <rect
       style="fill:#ff0000;stroke-width:1.5875;stroke-opacity:0.99"
       id="rect8"
       width="5"
       height="19.999998"
       x="115"
       y="180" />
    <path
       id="rect9"
       style="fill:#ff0000;stroke-width:1.5875;stroke-opacity:0.99"
       d="m 105,195 h 12.94023 v 5 H 105 Z" />
    <path
       id="rect9-1"
       style="display:inline;fill:#ff0000;stroke-width:1.5875;stroke-opacity:0.99"
       d="m 105,175 h 10 l 5,4.99999 h -15 z" />
    <rect
       style="fill:#ff0000;stroke-width:1.5875;stroke-opacity:0.99"
       id="rect10"
       width="4.9999962"
       height="4.9999952"
       x="110"
       y="185" />
    <rect
       style="fill:#ff0000;stroke-width:1.5875;stroke-opacity:0.99"
       id="rect11"
       width="5"
       height="4.9999995"
       x="105"
       y="185" />
    <path
       id="rect12"
       style="fill:#ff0000;stroke-width:1.5875;stroke-opacity:0.99"
       d="m 105,114.99999 h 5 v 25 h -5 z" />
    <path
       d="M 115.00024,120.00005 115,130 l 4.99993,-5.00025 v -4.9997 z"
       style="fill:#ff0000;stroke-width:1.5875;stroke-opacity:0.99"
       id="path39" />
    <path
       id="rect15"
       style="fill:#ff0000;stroke-width:1.5875;stroke-opacity:0.99"
       d="m 110,125 h 5 v 5 h -5 z" />
    <path
       id="rect18"
       style="fill:#ff0000;stroke-width:1.5875;stroke-opacity:0.99"
       d="m 115,125 5,5 v 10 h -5 z" />
    <path
       d="m 110.00003,114.99984 v 5.00021 L 120,120 l -4.99976,-5.00016 z"
       style="fill:#ff0000;stroke-width:1.5875;stroke-opacity:0.99"
       id="path38" />
    <path
       id="rect50"
       style="fill:#ff0000;stroke-width:1.5875;stroke-opacity:0.99"
       d="m 95,104.99999 h 5 v 104.99999 l -4.999998,-4.99999 c 7.3e-5,-164.981443 -2e-6,-65 -2e-6,-100 z" />
    <rect
       style="fill:#ff0000;stroke-width:1.5875;stroke-opacity:0.99"
       id="rect51"
       width="25"
       height="4.9999995"
       x="100"
       y="104.99999" />
    <path
       id="rect52"
       style="fill:#ff0000;stroke-width:1.5875;stroke-opacity:0.99"
       d="M 125,104.99999 130,110 v 99.99998 h -5 z" />
    <rect
       style="fill:#ff0000;stroke-width:1.5875;stroke-opacity:0.99"
       id="rect53"
       width="25"
       height="4.9999995"
       x="100"
       y="204.99998" />
    <path
       id="rect54"
       style="fill:#ff0000;stroke-width:1.5875;stroke-opacity:0.99"
       d="m 105,145 h 5 v 5 h -5 z" />
  </g>
  <g
     id="layer3"
     style="display:none">
    <rect
       style="fill:#ff0000;stroke-width:1.5875;stroke-opacity:0.99"
       id="rect20"
       width="20.000004"
       height="4.9999967"
       x="125"
       y="115"
       ry="2.4999983" />
    <rect
       style="fill:#ff0000;stroke-width:1.5875;stroke-opacity:0.99"
       id="rect21"
       width="5"
       height="25"
       x="125"
       y="115"
       ry="2.5" />
    <rect
       style="fill:#ff0000;stroke-width:1.5875;stroke-opacity:0.99"
       id="rect22"
       width="5"
       height="15"
       x="140"
       y="115"
       ry="2.4999983" />
    <rect
       style="fill:#ff0000;stroke-width:1.5875;stroke-opacity:0.99"
       id="rect23"
       width="19.999996"
       height="4.9999881"
       x="125"
       y="125"
       ry="2.499994" />
    <rect
       style="fill:#ff0000;stroke-width:1.5875;stroke-opacity:0.99"
       id="rect25"
       width="5"
       height="15"
       x="135"
       y="124.99999"
       ry="2.5" />
    <rect
       style="fill:#ff0000;stroke-width:1.5875;stroke-opacity:0.99"
       id="rect26"
       width="5"
       height="25"
       x="150"
       y="115"
       ry="2.5" />
    <rect
       style="fill:#ff0000;stroke-width:1.5875;stroke-opacity:0.99"
       id="rect27"
       width="20"
       height="4.9999995"
       x="160"
       y="115"
       ry="2.4999998" />
    <rect
       style="fill:#ff0000;stroke-width:1.5875;stroke-opacity:0.99"
       id="rect28"
       width="5"
       height="25"
       x="175"
       y="115"
       ry="2.4999998" />
    <rect
       style="fill:#ff0000;stroke-width:1.5875;stroke-opacity:0.99"
       id="rect29"
       width="20"
       height="4.9999995"
       x="160"
       y="135"
       ry="2.4999998" />
    <rect
       style="fill:#ff0000;stroke-width:1.5875;stroke-opacity:0.99"
       id="rect30"
       width="15"
       height="4.9999995"
       x="165"
       y="124.99999"
       ry="2.4999998" />
  </g>
  <g
     id="layer4"
     style="display:none">
    <path
       d="m 125.00019,144.99988 v 30.00024 H 145 v -30.00024 z m 4.9997,5.00022 h 10.00042 v 4.99969 h -10.00042 z"
       style="fill:#ff0000;stroke-width:1.5875;stroke-opacity:0.99"
       id="path37" />
    <rect
       style="fill:#ff0000;stroke-width:1.5875;stroke-opacity:0.99"
       id="rect32"
       width="5"
       height="30.000002"
       x="150"
       y="145"
       ry="0" />
    <rect
       style="fill:#ff0000;stroke-width:1.5875;stroke-opacity:0.99"
       id="rect33"
       width="20"
       height="4.9999995"
       x="160"
       y="145" />
    <rect
       style="fill:#ff0000;stroke-width:1.5875;stroke-opacity:0.99"
       id="rect34"
       width="5"
       height="25"
       x="175"
       y="150" />
    <rect
       style="fill:#ff0000;stroke-width:1.5875;stroke-opacity:0.99"
       id="rect35"
       width="15"
       height="4.9999995"
       x="160"
       y="169.99998" />
    <rect
       style="fill:#ff0000;stroke-width:1.5875;stroke-opacity:0.99"
       id="rect36"
       width="10"
       height="4.9999995"
       x="165"
       y="155" />
  </g>
  <g
     id="g65"
     style="display:inline">
    <path
       d="m 110,119.99991 v 5.00021 h 5.00022 v -5.00021 z"
       style="fill:#ff0000;stroke-width:1.5875;stroke-opacity:0.99"
       id="path67" />
    <path
       d="m 100.0001,110 v 90.0002 l 4.99969,4.99969 h 20.00033 V 115.00022 L 119.99991,110 Z M 110,114.9997 h 5.00022 l 4.99969,5.00021 v 4.9997 l -2.50011,2.5001 2.50011,2.50011 v 10.00042 h -4.99969 V 129.99982 H 110 v 10.00042 h -5.00021 V 115.00022 H 110 Z m -5.00021,30.00023 H 110 l 5.00022,5.00022 v 15.13189 h 4.99969 v 4.86792 h -15.00012 v -4.86792 H 110 v -15.13189 h -5.00021 z m 0,30.00024 h 10.00043 l 4.99969,4.9997 v 20.00033 h -2.05982 -12.9403 v -5.00022 h 10.00043 v -5.00021 H 110 104.99979 v -4.99969 H 110 h 5.00022 v -5.00021 h -10.00043 z"
       style="fill:#ff0000;stroke-width:1.5875;stroke-opacity:0.99"
       id="path66" />
  </g>
</svg>
