<?xml version="1.0" encoding="UTF-8" standalone="no"?>
<!-- Generator: Adobe Illustrator 16.0.0, SVG Export Plug-In . SVG Version: 6.00 Build 0)  -->

<svg
   version="1.1"
   id="Layer_1"
   x="0px"
   y="0px"
   width="80mm"
   height="80mm"
   viewBox="0 0 302.3622 302.3622"
   enable-background="new 0 0 512 512"
   xml:space="preserve"
   sodipodi:docname="scale_assembly_clean.svg"
   inkscape:version="1.3.2 (091e20e, 2023-11-25)"
   xmlns:inkscape="http://www.inkscape.org/namespaces/inkscape"
   xmlns:sodipodi="http://sodipodi.sourceforge.net/DTD/sodipodi-0.dtd"
   xmlns="http://www.w3.org/2000/svg"
   xmlns:svg="http://www.w3.org/2000/svg"><defs
   id="defs9" /><sodipodi:namedview
   id="namedview9"
   pagecolor="#ffffff"
   bordercolor="#000000"
   borderopacity="0.25"
   inkscape:showpageshadow="2"
   inkscape:pageopacity="0.0"
   inkscape:pagecheckerboard="true"
   inkscape:deskcolor="#d1d1d1"
   inkscape:zoom="1.610158"
   inkscape:cx="178.86443"
   inkscape:cy="323.57073"
   inkscape:window-width="2560"
   inkscape:window-height="1387"
   inkscape:window-x="0"
   inkscape:window-y="25"
   inkscape:window-maximized="0"
   inkscape:current-layer="Layer_1"
   inkscape:document-units="mm" />


<g
   id="g9"
   transform="matrix(0.68347205,0,0,0.68347205,-33.239297,-11.320347)">
	<polygon
   fill="#1491c2"
   points="255.992,495.438 463.375,375.734 463.375,308.453 411.875,340.266 255.992,430.266 "
   id="polygon1" />
	<polygon
   fill="#27aae1"
   points="255.992,16.563 48.633,136.281 48.633,203.555 100.133,171.734 255.992,81.75 "
   id="polygon2" />
	<polygon
   fill="#1c75bc"
   points="100.133,282.328 48.633,260.922 48.633,375.734 255.992,495.438 255.992,430.266 100.133,340.266 "
   id="polygon3" />
	<polygon
   fill="#1c75bc"
   points="463.375,251.063 463.375,136.281 255.992,16.563 255.992,81.75 411.875,171.734 411.875,229.68 "
   id="polygon4" />
	<polygon
   fill="#27aae1"
   points="255.992,110.25 154.773,168.68 214.688,193.547 255.992,169.711 "
   id="polygon5" />
	<polygon
   fill="#1491c2"
   points="381.375,262.734 381.375,182.625 255.992,110.242 255.992,110.25 255.992,169.711 329.875,212.359 329.875,241.367 "
   id="polygon6" />
	<polygon
   fill="#27aae1"
   points="255.992,340.328 182.109,297.672 182.109,270.641 130.609,249.258 130.609,327.391 255.992,399.797 "
   id="polygon7" />
	<polygon
   fill="#1491c2"
   points="295.281,317.641 255.992,340.328 255.992,399.797 355.219,342.484 "
   id="polygon8" />
	<polygon
   fill="#1c75bc"
   points="463.375,308.453 463.375,375.734 48.633,203.555 48.633,136.281 "
   id="polygon9" />
</g></svg>
