<?xml version="1.0" encoding="utf-8"?>
<!-- Generator: Adobe Illustrator 16.0.0, SVG Export Plug-In . SVG Version: 6.00 Build 0)  -->
<!DOCTYPE svg PUBLIC "-//W3C//DTD SVG 1.1//EN" "http://www.w3.org/Graphics/SVG/1.1/DTD/svg11.dtd">
<svg version="1.1" id="Layer_1" xmlns="http://www.w3.org/2000/svg" xmlns:xlink="http://www.w3.org/1999/xlink" x="0px" y="0px"
	 width="512px" height="512px" viewBox="0 0 512 512" enable-background="new 0 0 512 512" xml:space="preserve">
<rect opacity="0.05" fill="#F1F2F2" width="512" height="512"/>
<g>
	<polygon fill="#1491C2" points="411.875,340.266 255.992,430.266 255.992,495.438 463.375,375.734 463.375,308.453 	"/>
	<polygon fill="#27AAE1" points="100.133,171.734 255.992,81.75 255.992,16.563 48.633,136.281 48.633,203.555 	"/>
	<polygon fill="#1C75BC" points="48.633,260.922 48.633,375.734 255.992,495.438 255.992,430.266 100.133,340.266 100.133,282.328 	
		"/>
	<polygon fill="#1C75BC" points="463.375,136.281 255.992,16.563 255.992,81.75 411.875,171.734 411.875,229.68 463.375,251.063 	
		"/>
	<polygon fill="#27AAE1" points="255.992,169.711 255.992,110.25 154.773,168.68 214.688,193.547 	"/>
	<polygon fill="#1491C2" points="255.992,169.711 329.875,212.359 329.875,241.367 381.375,262.734 381.375,182.625 
		255.992,110.242 255.992,110.25 255.992,169.711 	"/>
	<polygon fill="#27AAE1" points="182.109,297.672 182.109,270.641 130.609,249.258 130.609,327.391 255.992,399.797 
		255.992,340.328 	"/>
	<polygon fill="#1491C2" points="255.992,340.328 255.992,340.328 255.992,399.797 255.992,399.797 355.219,342.484 
		295.281,317.641 	"/>
	<polygon fill="#1C75BC" points="48.633,136.281 463.375,308.453 463.375,375.734 48.633,203.555 	"/>
</g>
</svg>
